<?xml version="1.0" ?><!DOCTYPE svg  PUBLIC '-//W3C//DTD SVG 1.1//EN'  'http://www.w3.org/Graphics/SVG/1.1/DTD/svg11.dtd'><svg height="512px" style="enable-background:new 0 0 512 512;" version="1.1" viewBox="0 0 512 512" width="512px" xml:space="preserve" xmlns="http://www.w3.org/2000/svg" xmlns:xlink="http://www.w3.org/1999/xlink"><g id="_x31_64_x2C__Browse_x2C__map_x2C__navigation_x2C__location"><g id="XMLID_13223_"><path d="M280.564,378.56c-2.289,2.963-4.471,5.776-6.527,8.423c-0.027,0.034-0.055,0.069-0.082,0.104    c-0.363,0.468-0.719,0.928-1.075,1.384c-0.056,0.07-0.112,0.145-0.167,0.215c-0.276,0.354-0.547,0.701-0.816,1.049    c-0.15,0.193-0.303,0.388-0.451,0.578c-0.23,0.296-0.455,0.585-0.682,0.875c-0.166,0.212-0.332,0.426-0.495,0.634    c-0.179,0.229-0.353,0.453-0.529,0.679c-0.228,0.291-0.455,0.583-0.679,0.868c-0.13,0.167-0.256,0.329-0.385,0.492    c-0.253,0.324-0.504,0.646-0.75,0.962c-0.096,0.122-0.189,0.242-0.285,0.362c-0.264,0.339-0.527,0.675-0.785,1.004    c-0.104,0.134-0.205,0.264-0.309,0.396c-0.258,0.328-0.512,0.652-0.762,0.972c-0.07,0.091-0.14,0.18-0.211,0.27    c-0.249,0.317-0.496,0.632-0.736,0.94c-0.125,0.157-0.246,0.312-0.367,0.468c-0.189,0.24-0.376,0.479-0.561,0.713    c-0.113,0.145-0.225,0.287-0.337,0.429c-0.216,0.275-0.428,0.546-0.638,0.812c-0.072,0.093-0.144,0.184-0.215,0.275    c-0.227,0.288-0.449,0.57-0.666,0.846c-0.057,0.072-0.113,0.144-0.169,0.215c-0.212,0.271-0.421,0.534-0.624,0.792    c-0.08,0.104-0.16,0.204-0.24,0.307c-0.184,0.232-0.363,0.46-0.54,0.685c-0.058,0.074-0.118,0.148-0.175,0.222    c-0.207,0.263-0.408,0.517-0.604,0.766c-0.033,0.042-0.066,0.085-0.1,0.126c-0.155,0.197-0.307,0.389-0.455,0.575    c-0.096,0.123-0.192,0.246-0.287,0.364c-0.139,0.177-0.271,0.345-0.404,0.513c-0.057,0.071-0.113,0.144-0.169,0.214    c-0.093,0.117-0.183,0.231-0.271,0.344c-0.131,0.165-0.259,0.326-0.38,0.479c-0.023,0.03-0.046,0.058-0.069,0.088    c-0.124,0.157-0.247,0.313-0.362,0.458c-0.119,0.149-0.229,0.29-0.339,0.428c-0.029,0.037-0.06,0.075-0.089,0.111    c-0.072,0.091-0.139,0.177-0.207,0.262c-0.073,0.093-0.147,0.186-0.215,0.271c-0.053,0.066-0.099,0.126-0.149,0.188    c-0.07,0.089-0.14,0.177-0.204,0.257c-0.019,0.023-0.033,0.042-0.051,0.064c-0.07,0.089-0.141,0.178-0.201,0.254    c-0.032,0.039-0.057,0.071-0.085,0.107c-0.056,0.069-0.109,0.138-0.155,0.194c-0.116,0.146-0.196,0.247-0.244,0.307    c-0.003,0.004-0.006,0.007-0.008,0.011c-0.024,0.029-0.038,0.047-0.041,0.051c-0.884,1.109-2.225,1.756-3.644,1.756    s-2.76-0.646-3.645-1.756c-0.071-0.088-4.735-5.946-12.231-15.528c-0.056-0.072-0.112-0.143-0.168-0.215    c-0.247-0.315-0.499-0.638-0.752-0.961c-0.126-0.162-0.251-0.322-0.379-0.486c-0.201-0.257-0.406-0.52-0.61-0.78    c-0.186-0.238-0.371-0.476-0.56-0.718c-0.156-0.2-0.316-0.404-0.474-0.606c-0.221-0.284-0.441-0.566-0.667-0.855    c-0.145-0.186-0.293-0.376-0.44-0.564c-0.262-0.336-0.523-0.671-0.79-1.013c-0.015-0.02-0.03-0.039-0.045-0.059    c-2.361-3.031-4.91-6.315-7.61-9.809c-0.18,0.021-0.365,0.04-0.543,0.061c-0.609,0.07-1.206,0.144-1.804,0.217    c-0.584,0.071-1.168,0.143-1.742,0.217c-0.587,0.077-1.165,0.155-1.742,0.234c-0.562,0.077-1.123,0.153-1.674,0.233    c-0.568,0.082-1.127,0.167-1.686,0.252c-0.54,0.082-1.079,0.164-1.608,0.249c-0.547,0.087-1.086,0.177-1.624,0.267    c-0.521,0.087-1.04,0.176-1.551,0.265c-0.526,0.093-1.044,0.187-1.56,0.281c-0.499,0.092-0.995,0.184-1.484,0.278    c-0.507,0.097-1.006,0.196-1.502,0.295c-0.48,0.097-0.958,0.194-1.428,0.292c-0.483,0.102-0.959,0.203-1.432,0.308    c-0.462,0.1-0.921,0.201-1.374,0.305c-0.463,0.104-0.92,0.211-1.373,0.317c-0.441,0.104-0.878,0.21-1.31,0.315    c-0.442,0.109-0.88,0.219-1.313,0.329c-0.421,0.108-0.837,0.217-1.249,0.325c-0.424,0.112-0.845,0.227-1.259,0.341    c-0.4,0.11-0.793,0.221-1.183,0.332c-0.404,0.116-0.805,0.231-1.199,0.349c-0.383,0.114-0.76,0.229-1.133,0.343    c-0.381,0.118-0.759,0.236-1.13,0.354c-0.364,0.116-0.722,0.233-1.077,0.351c-0.363,0.12-0.722,0.24-1.075,0.361    c-0.345,0.118-0.682,0.237-1.017,0.356c-0.341,0.122-0.681,0.244-1.013,0.366c-0.328,0.121-0.647,0.243-0.965,0.365    c-0.32,0.122-0.64,0.244-0.95,0.368c-0.309,0.122-0.609,0.246-0.908,0.368c-0.301,0.124-0.602,0.249-0.894,0.373    c-0.29,0.124-0.571,0.248-0.852,0.373c-0.281,0.124-0.562,0.249-0.834,0.374c-0.272,0.125-0.535,0.251-0.798,0.376    c-0.26,0.125-0.522,0.25-0.773,0.375c-0.255,0.126-0.5,0.253-0.746,0.38c-0.241,0.124-0.481,0.249-0.713,0.372    c-0.238,0.129-0.464,0.256-0.693,0.384c-0.22,0.123-0.441,0.246-0.652,0.369c-0.22,0.128-0.429,0.257-0.639,0.385    c-0.201,0.122-0.405,0.245-0.597,0.367c-0.201,0.128-0.39,0.256-0.581,0.382c-0.183,0.122-0.369,0.244-0.542,0.365    c-0.184,0.129-0.356,0.257-0.531,0.385c-0.162,0.119-0.328,0.238-0.482,0.356c-0.167,0.129-0.321,0.256-0.478,0.385    c-0.144,0.116-0.292,0.233-0.426,0.35c-0.149,0.128-0.284,0.255-0.423,0.381c-0.125,0.115-0.256,0.229-0.373,0.343    c-0.131,0.128-0.248,0.254-0.369,0.38c-0.106,0.111-0.219,0.223-0.317,0.333c-0.114,0.127-0.213,0.252-0.316,0.378    c-0.088,0.107-0.183,0.215-0.263,0.321c-0.097,0.127-0.179,0.252-0.265,0.379c-0.069,0.101-0.146,0.203-0.208,0.304    c-0.08,0.128-0.143,0.254-0.211,0.38c-0.051,0.095-0.11,0.191-0.156,0.286c-0.062,0.13-0.107,0.257-0.156,0.384    c-0.034,0.088-0.077,0.176-0.105,0.262c-0.046,0.142-0.074,0.279-0.104,0.417c-0.016,0.069-0.04,0.14-0.051,0.208    c-0.035,0.204-0.052,0.404-0.052,0.601c0,9.297,34.399,22.802,88.303,22.802c53.903,0,88.303-13.505,88.303-22.802    c0-0.214-0.021-0.433-0.061-0.656c-0.014-0.074-0.043-0.152-0.062-0.229c-0.035-0.149-0.068-0.299-0.122-0.454    c-0.031-0.091-0.08-0.186-0.119-0.278c-0.059-0.142-0.111-0.282-0.186-0.427c-0.052-0.1-0.119-0.203-0.177-0.304    c-0.081-0.141-0.156-0.279-0.251-0.422c-0.07-0.107-0.158-0.216-0.237-0.323c-0.102-0.141-0.198-0.28-0.313-0.421    c-0.091-0.112-0.198-0.226-0.297-0.339c-0.124-0.14-0.241-0.28-0.378-0.422c-0.11-0.115-0.236-0.232-0.355-0.348    c-0.146-0.143-0.286-0.284-0.444-0.428c-0.13-0.117-0.274-0.235-0.412-0.354c-0.168-0.144-0.332-0.286-0.512-0.432    c-0.15-0.121-0.316-0.241-0.475-0.362c-0.189-0.145-0.374-0.287-0.576-0.432c-0.169-0.122-0.354-0.245-0.533-0.368    c-0.211-0.145-0.419-0.288-0.643-0.434c-0.189-0.123-0.393-0.247-0.592-0.37c-0.233-0.146-0.465-0.29-0.711-0.436    c-0.209-0.124-0.432-0.247-0.65-0.37c-0.257-0.146-0.511-0.292-0.779-0.438c-0.229-0.123-0.47-0.246-0.708-0.37    c-0.28-0.146-0.559-0.291-0.852-0.437c-0.247-0.124-0.509-0.247-0.767-0.37c-0.302-0.145-0.604-0.289-0.917-0.433    c-0.27-0.124-0.552-0.247-0.83-0.37c-0.325-0.144-0.648-0.286-0.986-0.43c-0.289-0.121-0.588-0.242-0.886-0.364    c-0.349-0.143-0.697-0.285-1.059-0.426c-0.31-0.121-0.63-0.241-0.948-0.361c-0.37-0.141-0.742-0.28-1.126-0.42    c-0.33-0.119-0.671-0.238-1.011-0.356c-0.393-0.138-0.786-0.275-1.191-0.411c-0.353-0.118-0.715-0.234-1.077-0.352    c-0.415-0.135-0.832-0.269-1.26-0.401c-0.373-0.116-0.755-0.23-1.136-0.345c-0.438-0.132-0.879-0.262-1.33-0.392    c-0.396-0.113-0.799-0.225-1.204-0.337c-0.46-0.128-0.922-0.254-1.395-0.38c-0.416-0.11-0.84-0.218-1.266-0.326    c-0.483-0.124-0.972-0.247-1.467-0.368c-0.438-0.107-0.883-0.212-1.331-0.317c-0.504-0.118-1.012-0.235-1.529-0.352    c-0.462-0.104-0.933-0.206-1.405-0.309c-0.524-0.112-1.055-0.225-1.593-0.335c-0.484-0.1-0.977-0.198-1.472-0.296    c-0.546-0.107-1.097-0.213-1.654-0.317c-0.511-0.096-1.027-0.19-1.549-0.283c-0.567-0.102-1.139-0.202-1.718-0.3    c-0.534-0.091-1.072-0.18-1.617-0.268c-0.587-0.096-1.18-0.188-1.779-0.28c-0.56-0.087-1.124-0.171-1.694-0.253    c-0.606-0.089-1.22-0.175-1.838-0.26c-0.587-0.081-1.178-0.16-1.774-0.236c-0.624-0.081-1.255-0.16-1.892-0.237    c-0.612-0.074-1.229-0.148-1.854-0.219c-0.643-0.074-1.294-0.145-1.948-0.214c-0.642-0.068-1.287-0.136-1.94-0.2    c-0.658-0.065-1.324-0.128-1.994-0.189c-0.673-0.062-1.347-0.122-2.03-0.181C281.118,378.604,280.839,378.583,280.564,378.56z" id="XMLID_13224_"/><path d="M120.04,210.638c3.446,15.54,34.408,62.605,87.165,132.45c7.02,9.293,14.346,18.885,21.776,28.51    c10.047,13.015,18.171,23.353,22.593,28.951c4.503-5.701,12.849-16.32,23.157-29.682c7.487-9.705,14.834-19.329,21.835-28.606    c52.369-69.377,83.109-116.148,86.558-131.699l0.946-4.641c1.463-7.901,2.212-16.077,2.212-24.219    c0-73.703-60.43-133.666-134.708-133.666s-134.708,59.963-134.708,133.666c0,8.143,0.75,16.319,2.227,24.302L120.04,210.638z     M191.844,160.126c6.856-26.398,31.035-45.959,59.729-45.959c34.007,0,61.674,27.476,61.674,61.248    c0,33.771-27.667,61.247-61.674,61.247c-28.694,0-52.873-19.56-59.729-45.959c-1.27-4.889-1.945-10.012-1.945-15.288    C189.899,170.138,190.575,165.015,191.844,160.126z" id="XMLID_13225_"/><path d="M251.573,227.343c28.868,0,52.354-23.295,52.354-51.928c0-28.634-23.486-51.928-52.354-51.928    c-28.869,0-52.354,23.294-52.354,51.928C199.219,204.048,222.705,227.343,251.573,227.343z" id="XMLID_13228_"/><path d="M393.398,371.357c-22.943-10.351-55.166-17.926-90.962-21.406c-1.238,1.638-2.487,3.286-3.745,4.943    c-0.03,0.041-0.063,0.082-0.094,0.123c-1.579,2.079-3.175,4.175-4.779,6.278c-0.406,0.533-0.813,1.065-1.221,1.6    c-1.615,2.114-3.238,4.236-4.874,6.367c-0.005,0.008-0.011,0.015-0.017,0.022c-0.14,0.182-0.277,0.362-0.416,0.543    c0.052,0.006,0.104,0.012,0.156,0.018c1.946,0.206,3.898,0.435,5.851,0.688c0.028,0.004,0.057,0.007,0.086,0.012    c0.953,0.122,1.905,0.253,2.856,0.387c0.081,0.012,0.161,0.022,0.241,0.034c0.923,0.131,1.844,0.268,2.762,0.409    c0.106,0.017,0.214,0.033,0.32,0.051c0.91,0.141,1.817,0.287,2.723,0.439c0.102,0.018,0.203,0.034,0.306,0.052    c0.918,0.155,1.834,0.315,2.744,0.482c0.067,0.012,0.134,0.024,0.201,0.037c1.933,0.355,3.847,0.732,5.734,1.137    c0.005,0.001,0.012,0.003,0.018,0.004c0.916,0.196,1.824,0.398,2.727,0.606c0.075,0.018,0.151,0.034,0.227,0.052    c0.868,0.201,1.729,0.408,2.582,0.62c0.1,0.024,0.2,0.05,0.299,0.074c0.841,0.211,1.675,0.427,2.5,0.647    c0.102,0.027,0.2,0.055,0.301,0.081c0.83,0.225,1.651,0.454,2.464,0.689c0.078,0.022,0.154,0.045,0.231,0.068    c0.837,0.243,1.664,0.493,2.479,0.749c0.022,0.007,0.046,0.015,0.068,0.021c0.845,0.266,1.678,0.538,2.498,0.816    c0.009,0.004,0.02,0.007,0.029,0.01c0.791,0.269,1.568,0.545,2.335,0.826c0.072,0.026,0.146,0.053,0.218,0.079    c0.733,0.271,1.452,0.548,2.161,0.83c0.095,0.037,0.19,0.075,0.285,0.113c0.692,0.278,1.374,0.563,2.041,0.852    c0.097,0.042,0.193,0.085,0.29,0.127c0.667,0.293,1.322,0.59,1.961,0.894c0.078,0.037,0.154,0.075,0.231,0.111    c0.654,0.313,1.297,0.633,1.92,0.958c0.039,0.021,0.077,0.041,0.115,0.063c0.642,0.336,1.267,0.679,1.873,1.028    c0.012,0.006,0.024,0.014,0.037,0.021c0.596,0.343,1.169,0.694,1.729,1.051c0.06,0.038,0.121,0.075,0.179,0.112    c0.533,0.343,1.046,0.691,1.544,1.045c0.074,0.053,0.148,0.104,0.221,0.157c0.484,0.35,0.95,0.705,1.399,1.065    c0.073,0.058,0.144,0.116,0.216,0.175c0.444,0.361,0.871,0.73,1.278,1.104c0.06,0.055,0.116,0.109,0.174,0.164    c0.411,0.385,0.808,0.774,1.178,1.171c0.034,0.036,0.064,0.072,0.098,0.107c0.381,0.413,0.744,0.832,1.08,1.258    c0.006,0.007,0.011,0.013,0.016,0.02c0.334,0.424,0.64,0.856,0.928,1.293c0.03,0.048,0.063,0.093,0.094,0.141    c0.269,0.418,0.512,0.843,0.736,1.273c0.035,0.066,0.07,0.133,0.104,0.2c0.213,0.424,0.403,0.854,0.571,1.288    c0.029,0.074,0.057,0.148,0.085,0.223c0.161,0.438,0.3,0.881,0.415,1.329c0.018,0.069,0.033,0.14,0.05,0.209    c0.11,0.462,0.199,0.928,0.26,1.401c0.006,0.049,0.009,0.099,0.014,0.148c0.059,0.499,0.094,1.004,0.094,1.516    c0,21.088-49.111,32.121-97.623,32.121c-48.512,0-97.623-11.033-97.623-32.121c0-7.966,6.874-14.816,20.43-20.361    c0.677-0.277,1.373-0.549,2.078-0.817c0.229-0.088,0.465-0.172,0.697-0.259c0.486-0.181,0.975-0.36,1.474-0.537    c0.278-0.099,0.561-0.195,0.842-0.292c0.472-0.163,0.949-0.325,1.432-0.483c0.293-0.098,0.587-0.192,0.884-0.288    c0.498-0.16,1.003-0.318,1.512-0.474c0.287-0.088,0.571-0.177,0.862-0.263c0.587-0.177,1.185-0.349,1.787-0.52    c0.218-0.062,0.43-0.125,0.649-0.187c0.824-0.229,1.659-0.454,2.508-0.674c0.186-0.049,0.377-0.095,0.564-0.143    c0.67-0.171,1.344-0.34,2.028-0.505c0.306-0.074,0.617-0.146,0.927-0.218c0.579-0.137,1.162-0.272,1.75-0.404    c0.341-0.077,0.686-0.152,1.03-0.227c0.578-0.127,1.16-0.251,1.747-0.372c0.347-0.072,0.693-0.145,1.043-0.215    c0.628-0.127,1.264-0.251,1.903-0.374c0.309-0.059,0.614-0.119,0.925-0.177c0.853-0.159,1.714-0.315,2.584-0.466    c0.102-0.019,0.201-0.037,0.303-0.054c0.979-0.17,1.97-0.333,2.971-0.491c0.275-0.043,0.556-0.084,0.832-0.127    c0.728-0.113,1.459-0.224,2.197-0.331c0.354-0.052,0.711-0.101,1.067-0.15c0.397-0.057,0.79-0.114,1.19-0.169    c-0.089-0.115-0.176-0.229-0.265-0.346c-0.365-0.475-0.726-0.946-1.089-1.421c-1.336-1.739-2.665-3.476-3.988-5.207    c-0.431-0.563-0.861-1.127-1.291-1.689c-1.597-2.092-3.187-4.178-4.761-6.249c-0.091-0.12-0.181-0.238-0.272-0.358    c-1.192-1.57-2.38-3.136-3.558-4.692c-33.767,3.926-63.951,11.593-85.227,21.668c-20.994,9.943-32.556,21.792-32.556,33.364    c0,28.062,69.279,58.106,172.412,58.106s172.412-30.045,172.412-58.106C428.412,393.796,415.978,381.544,393.398,371.357z" id="XMLID_13229_"/></g></g><g id="Layer_1"/></svg>